<svg width="24" height="25" viewBox="0 0 24 25" fill="none" xmlns="http://www.w3.org/2000/svg">
<path fill-rule="evenodd" clip-rule="evenodd" d="M1.5 12.5C1.5 12.3011 1.57902 12.1103 1.71967 11.9696C1.86032 11.829 2.05109 11.75 2.25 11.75H19.9395L15.219 7.03097C15.0782 6.89014 14.9991 6.69913 14.9991 6.49997C14.9991 6.30081 15.0782 6.1098 15.219 5.96897C15.3598 5.82814 15.5508 5.74902 15.75 5.74902C15.9492 5.74902 16.1402 5.82814 16.281 5.96897L22.281 11.969C22.3508 12.0386 22.4063 12.1214 22.4441 12.2125C22.4819 12.3036 22.5013 12.4013 22.5013 12.5C22.5013 12.5986 22.4819 12.6963 22.4441 12.7874C22.4063 12.8785 22.3508 12.9613 22.281 13.031L16.281 19.031C16.1402 19.1718 15.9492 19.2509 15.75 19.2509C15.5508 19.2509 15.3598 19.1718 15.219 19.031C15.0782 18.8901 14.9991 18.6991 14.9991 18.5C14.9991 18.3008 15.0782 18.1098 15.219 17.969L19.9395 13.25H2.25C2.05109 13.25 1.86032 13.171 1.71967 13.0303C1.57902 12.8896 1.5 12.6989 1.5 12.5Z" fill="#1E1E1E"/>
</svg>
