<svg width="40" height="40" viewBox="0 0 40 40" fill="none" xmlns="http://www.w3.org/2000/svg">
<path d="M20.465 2.60313C20.1665 2.48294 19.8335 2.48294 19.535 2.60313L4.615 8.59944L10.625 11.0135L26.01 4.83134L20.465 2.60313ZM29.375 6.18534L13.99 12.3675L20 14.7816L35.385 8.59944L29.375 6.18534ZM37.5 10.4559L21.25 16.9872V36.8878L37.5 30.3565V10.4559ZM18.75 36.8904V16.9847L2.5 10.4559V30.359L18.75 36.8904ZM18.6075 0.269421C19.5014 -0.0898069 20.4986 -0.0898069 21.3925 0.269421L39.215 7.43384C39.4467 7.52715 39.6453 7.68804 39.7852 7.89578C39.9251 8.10352 39.9999 8.3486 40 8.59944V30.359C39.9997 30.8609 39.8497 31.3513 39.5694 31.7668C39.2891 32.1823 38.8914 32.5039 38.4275 32.6902L20.465 39.9099C20.1665 40.03 19.8335 40.03 19.535 39.9099L1.575 32.6902C1.11063 32.5043 0.712356 32.1829 0.431605 31.7673C0.150854 31.3518 0.000515823 30.8612 0 30.359L0 8.59944C5.80999e-05 8.3486 0.0748594 8.10352 0.214768 7.89578C0.354676 7.68804 0.553282 7.52715 0.785 7.43384L18.6075 0.269421Z" fill="#1E1E1E"/>
</svg>
