<svg width="48" height="49" viewBox="0 0 48 49" fill="none" xmlns="http://www.w3.org/2000/svg">
<circle cx="24" cy="24.678" r="23.5" stroke="#636363"/>
<path d="M23.9998 16.3445C26.264 16.3445 26.5465 16.3528 27.4348 16.3945C28.3223 16.4361 28.9265 16.5753 29.4582 16.782C30.0082 16.9936 30.4715 17.2803 30.9348 17.7428C31.3586 18.1594 31.6865 18.6633 31.8957 19.2195C32.1015 19.7503 32.2415 20.3553 32.2832 21.2428C32.3223 22.1311 32.3332 22.4136 32.3332 24.6778C32.3332 26.942 32.3248 27.2245 32.2832 28.1128C32.2415 29.0003 32.1015 29.6045 31.8957 30.1361C31.6871 30.6926 31.3591 31.1967 30.9348 31.6128C30.5181 32.0364 30.0143 32.3643 29.4582 32.5736C28.9273 32.7795 28.3223 32.9195 27.4348 32.9611C26.5465 33.0003 26.264 33.0111 23.9998 33.0111C21.7357 33.0111 21.4532 33.0028 20.5648 32.9611C19.6773 32.9195 19.0732 32.7795 18.5415 32.5736C17.9851 32.3649 17.4811 32.0369 17.0648 31.6128C16.641 31.1963 16.3131 30.6924 16.104 30.1361C15.8973 29.6053 15.7582 29.0003 15.7165 28.1128C15.6773 27.2245 15.6665 26.942 15.6665 24.6778C15.6665 22.4136 15.6748 22.1311 15.7165 21.2428C15.7582 20.3545 15.8973 19.7511 16.104 19.2195C16.3125 18.663 16.6405 18.1589 17.0648 17.7428C17.4812 17.3188 17.9852 16.9909 18.5415 16.782C19.0732 16.5753 19.6765 16.4361 20.5648 16.3945C21.4532 16.3553 21.7357 16.3445 23.9998 16.3445ZM23.9998 20.5111C22.8948 20.5111 21.835 20.9501 21.0536 21.7315C20.2722 22.5129 19.8332 23.5727 19.8332 24.6778C19.8332 25.7829 20.2722 26.8427 21.0536 27.6241C21.835 28.4055 22.8948 28.8445 23.9998 28.8445C25.1049 28.8445 26.1647 28.4055 26.9461 27.6241C27.7275 26.8427 28.1665 25.7829 28.1665 24.6778C28.1665 23.5727 27.7275 22.5129 26.9461 21.7315C26.1647 20.9501 25.1049 20.5111 23.9998 20.5111ZM29.4165 20.3028C29.4165 20.0265 29.3068 19.7616 29.1114 19.5662C28.9161 19.3709 28.6511 19.2611 28.3748 19.2611C28.0986 19.2611 27.8336 19.3709 27.6383 19.5662C27.4429 19.7616 27.3332 20.0265 27.3332 20.3028C27.3332 20.5791 27.4429 20.844 27.6383 21.0394C27.8336 21.2347 28.0986 21.3445 28.3748 21.3445C28.6511 21.3445 28.9161 21.2347 29.1114 21.0394C29.3068 20.844 29.4165 20.5791 29.4165 20.3028ZM23.9998 22.1778C24.6629 22.1778 25.2988 22.4412 25.7676 22.91C26.2364 23.3789 26.4998 24.0148 26.4998 24.6778C26.4998 25.3409 26.2364 25.9767 25.7676 26.4456C25.2988 26.9144 24.6629 27.1778 23.9998 27.1778C23.3368 27.1778 22.7009 26.9144 22.2321 26.4456C21.7632 25.9767 21.4998 25.3409 21.4998 24.6778C21.4998 24.0148 21.7632 23.3789 22.2321 22.91C22.7009 22.4412 23.3368 22.1778 23.9998 22.1778Z" fill="#1E1E1E" fill-opacity="0.75"/>
</svg>
