<svg width="141" height="22" viewBox="0 0 141 22" fill="none" xmlns="http://www.w3.org/2000/svg">
<path d="M133.314 0.807977C132.378 0.519976 131.394 0.375977 130.362 0.375977H123.066C123.594 0.495976 124.002 0.783977 124.314 1.19198C124.626 1.57598 124.794 2.07998 124.794 2.60798V18.592C124.794 19.648 124.098 20.56 123.066 20.8H130.362C131.394 20.8 132.378 20.656 133.314 20.368C137.514 19.096 140.562 15.208 140.562 10.6C140.562 5.96798 137.514 2.07998 133.314 0.807977ZM128.298 20.368V0.807977H130.362C134.058 0.807977 137.058 5.19998 137.058 10.6C137.058 16 134.058 20.368 130.362 20.368H128.298Z" fill="#1E1E1E"/>
<path d="M121.174 2.29598C121.174 1.40798 121.75 0.639976 122.59 0.375977H119.302C120.142 0.639976 120.718 1.40798 120.718 2.29598V18.52L111.502 0.375977H106.894C107.398 0.519976 107.782 0.879976 108.046 1.31198L108.118 1.45598C108.238 1.71998 108.31 2.00798 108.31 2.29598V18.88C108.31 19.768 107.734 20.536 106.894 20.8H110.158C109.318 20.536 108.742 19.768 108.742 18.88V2.67998L117.958 20.8H122.59C121.75 20.536 121.174 19.768 121.174 18.88V2.29598Z" fill="#1E1E1E"/>
<path d="M99.4644 0.375977C100.496 0.639976 101.192 1.55198 101.192 2.58398V18.592C101.192 19.648 100.496 20.56 99.4644 20.8H106.424C105.416 20.56 104.696 19.648 104.696 18.592V2.58398C104.696 1.55198 105.416 0.639976 106.424 0.375977H99.4644Z" fill="#1E1E1E"/>
<path d="M93.7437 0.375977L89.1837 14.512L84.4077 0.375977H79.8237C80.2557 0.495976 80.6157 0.759976 80.8557 1.09598C80.9517 1.21598 81.0237 1.33598 81.0717 1.47998L81.2157 1.86398C81.2397 2.00798 81.2637 2.15198 81.2637 2.29598V18.88C81.2637 19.768 80.6877 20.536 79.8237 20.8H83.1117C82.6797 20.68 82.3437 20.416 82.0797 20.08C81.8397 19.744 81.6957 19.336 81.6957 18.88V3.35198L87.4797 20.8L93.7437 1.81598V18.592C93.7437 19.648 93.0477 20.56 92.0157 20.8H98.9757C98.4717 20.68 98.0397 20.392 97.7277 19.984C97.4397 19.6 97.2477 19.12 97.2477 18.592V2.58398C97.2477 1.55198 97.9677 0.639976 98.9757 0.375977H93.7437Z" fill="#1E1E1E"/>
<path d="M77.9319 2.29598C77.9319 1.40798 78.5079 0.639976 79.3479 0.375977H76.0599C76.8999 0.639976 77.4759 1.40798 77.4759 2.29598V18.52L68.2598 0.375977H63.6519C64.1559 0.519976 64.5399 0.879976 64.8039 1.31198L64.8759 1.45598C64.9959 1.71998 65.0679 2.00798 65.0679 2.29598V18.88C65.0679 19.768 64.4919 20.536 63.6519 20.8H66.9159C66.0759 20.536 65.4999 19.768 65.4999 18.88V2.67998L74.7159 20.8H79.3479C78.5079 20.536 77.9319 19.768 77.9319 18.88V2.29598Z" fill="#1E1E1E"/>
<path d="M58.8198 0.807977C60.5718 0.807977 62.3718 2.10398 63.1638 3.80798L62.2998 0.375977H49.9878C50.4918 0.495976 50.9238 0.783977 51.2358 1.19198C51.5478 1.57598 51.7158 2.07998 51.7158 2.58398V18.592C51.7158 19.648 50.9958 20.56 49.9878 20.8H62.2998L63.1638 17.368C62.3718 19.096 60.5718 20.368 58.8198 20.368H55.2198V15.904C55.2198 15.016 55.6278 14.176 56.3478 13.672C57.0438 13.144 57.8118 12.76 58.4838 12.52C58.6998 12.448 58.9398 12.4 59.1558 12.4C60.0198 12.4 60.8118 13 61.0038 13.888V9.71198C60.7638 10.768 59.9718 11.584 58.9398 11.896C57.8358 12.232 56.3958 12.88 55.2198 14.056V0.807977H58.8198Z" fill="#1E1E1E"/>
<path d="M45.1557 0.807977C46.9077 0.807977 48.7077 2.10398 49.4997 3.80798L48.6357 0.375977H36.3237C36.8277 0.495976 37.2597 0.783977 37.5717 1.19198C37.8837 1.57598 38.0517 2.07998 38.0517 2.58398V18.592C38.0517 19.648 37.3317 20.56 36.3237 20.8H48.6357L49.4997 17.368C48.7077 19.096 46.9077 20.368 45.1557 20.368H41.5557V15.904C41.5557 15.016 41.9637 14.176 42.6837 13.672C43.3797 13.144 44.1477 12.76 44.8197 12.52C45.0357 12.448 45.2757 12.4 45.4917 12.4C46.3557 12.4 47.1477 13 47.3397 13.888V9.71198C47.0997 10.768 46.3077 11.584 45.2757 11.896C44.1717 12.232 42.7317 12.88 41.5557 14.056V0.807977H45.1557Z" fill="#1E1E1E"/>
<path d="M34.6132 19.984C34.3012 19.6 34.1092 19.12 34.1092 18.592V16.36C34.1092 15.136 33.6292 14.032 32.8132 13.24C32.3092 12.712 31.6612 12.328 30.9172 12.112C30.7492 12.064 30.5812 12.04 30.4132 11.992C32.2852 11.416 35.1652 9.99998 35.1652 6.37598C35.1652 4.71998 34.5172 3.20798 33.4132 2.12798C32.3332 1.04798 30.8212 0.375977 29.1652 0.375977H20.5972C21.1012 0.495976 21.5332 0.783977 21.8452 1.19198C22.1572 1.57598 22.3252 2.07998 22.3252 2.58398V18.592C22.3252 19.624 21.6052 20.56 20.5972 20.8H27.5572C27.0532 20.68 26.6212 20.392 26.3092 19.984C26.0212 19.6 25.8292 19.12 25.8292 18.592V16.576C25.8292 15.448 26.2612 14.416 26.9572 13.624C27.3172 13.24 27.7972 13.024 28.3012 13.024C28.7332 13.024 29.1892 13.192 29.5252 13.528C30.0772 14.104 30.6052 14.992 30.6052 16.36V18.088C30.6052 19.576 31.8292 20.8 33.3412 20.8H35.8372C35.3332 20.68 34.9012 20.392 34.6132 19.984ZM25.8292 0.807977H26.9092C29.9812 0.807977 31.6612 3.30398 31.6612 6.37598C31.6612 7.91198 31.1572 9.42398 30.0532 10.312C27.7012 12.184 26.7172 12.808 25.8292 14.488V0.807977Z" fill="#1E1E1E"/>
<path d="M13.16 11.944C13.664 12.064 14.096 12.352 14.408 12.76C14.696 13.144 14.888 13.624 14.888 14.152V19.504C13.808 19.936 12.464 20.44 11 20.44C10.76 20.44 10.52 20.416 10.28 20.392C10.232 20.392 3.58396 19.72 3.58396 10.648C3.58396 5.12799 6.58396 0.63999 10.304 0.63999C11.96 0.63999 13.232 1.38399 14.168 2.41599C15.152 3.49599 15.8 4.86399 15.992 6.32799C16.016 6.59199 16.04 6.85599 16.04 7.11999C16.04 7.81599 15.92 8.55999 15.56 9.25599C15.56 9.25599 18.392 9.03999 18.392 5.65599C18.392 5.65599 18.32 3.92799 16.952 2.67999C15.8 1.64799 13.76 0.351991 10.832 0.20799C10.664 0.20799 10.496 0.18399 10.328 0.18399C5.11996 0.18399 0.703956 4.11999 0.151956 9.47199C0.103956 9.85599 0.0799561 10.264 0.0799561 10.648C0.0799561 16.408 4.66396 21.088 10.304 21.088C11.288 21.088 12.272 20.944 13.16 20.68C13.928 20.44 14.696 20.344 15.488 20.344C16.064 20.344 16.664 20.392 17.264 20.536L18.392 20.8V14.152C18.392 13.12 19.088 12.184 20.12 11.944H13.16Z" fill="#1E1E1E"/>
</svg>
