<svg width="48" height="49" viewBox="0 0 48 49" fill="none" xmlns="http://www.w3.org/2000/svg">
<circle cx="24" cy="24.678" r="23.5" stroke="#636363"/>
<path d="M20.2825 32.9288C27.83 32.9288 31.9587 26.6751 31.9587 21.2613C31.9587 21.0863 31.9587 20.9088 31.9513 20.7338C32.7551 20.152 33.4488 19.4315 34 18.6063C33.2491 18.9374 32.4535 19.1556 31.6388 19.2538C32.4969 18.7409 33.1397 17.9338 33.4475 16.9826C32.6412 17.4602 31.7588 17.7956 30.8387 17.9738C30.2202 17.3151 29.4018 16.8787 28.5101 16.7323C27.6185 16.5858 26.7034 16.7375 25.9067 17.1638C25.1099 17.59 24.476 18.2671 24.1031 19.0902C23.7301 19.9132 23.639 20.8363 23.8438 21.7163C22.2122 21.6345 20.616 21.2107 19.1588 20.4723C17.7016 19.7339 16.4159 18.6974 15.385 17.4301C14.8617 18.3339 14.702 19.4031 14.9383 20.4204C15.1746 21.4378 15.7893 22.327 16.6575 22.9076C16.0069 22.8855 15.3707 22.7108 14.8 22.3976V22.4538C14.8011 23.4007 15.1291 24.3181 15.7286 25.051C16.3281 25.784 17.1622 26.2874 18.09 26.4763C17.7378 26.5734 17.374 26.6217 17.0087 26.6201C16.7512 26.6209 16.4942 26.597 16.2413 26.5488C16.5035 27.3639 17.0141 28.0766 17.7016 28.5869C18.389 29.0973 19.2189 29.3799 20.075 29.3951C18.6207 30.5373 16.8243 31.1569 14.975 31.1538C14.6492 31.1552 14.3235 31.1364 14 31.0976C15.8769 32.2942 18.0566 32.9295 20.2825 32.9288Z" fill="#1E1E1E" fill-opacity="0.75"/>
</svg>
